pedal_clip_forces_x_-0.11_y_-0.06.mot
version=1
nRows=146
nColumns=4
inDegrees=yes
endheader
time	PedalClip_calcn_r_Fx	PedalClip_calcn_r_Fy	PedalClip_calcn_r_Fz
0.23546001	-215.829764866182	317.467268975492	0
0.23562435	-216.326303817509	318.345763287974	0
0.23578903	-216.82309755375	319.226508155026	0
0.23595369	-217.319856312405	320.109066631689	0
0.23611887	-217.816285943777	320.992869936149	0
0.23628378	-218.312195312306	321.877466020255	0
0.23644962	-218.80754233429	322.762660448554	0
0.23661462	-219.30235457255	323.648391037606	0
0.23678143	-219.796637604821	324.534523044559	0
0.23694613	-220.290325482096	325.420691409159	0
0.23711464	-220.783333947549	326.306444808622	0
0.23727846	-221.2756288072	327.191465488277	0
0.23745015	-221.767256811629	328.075641433236	0
0.23761221	-222.258293283286	328.958933403962	0
0.23779038	-222.748767110481	329.841188615753	0
0.23794979	-223.238614633487	330.722029074227	0
0.23814221	-223.727721917723	331.600989542696	0
0.23829879	-224.21599584827	332.477708061409	0
0.2385293	-224.70339766026	333.351962411366	0
0.23868558	-225.189889726019	334.223541569606	0
0.23893191	-225.675348278001	335.092086922511	0
0.23915395	-226.159542660266	335.957078522116	0
0.23931901	-226.642189578464	336.817963537013	0
0.23953555	-227.12302615186	337.674280155993	0
0.23969236	-227.601800887186	338.525602209979	0
0.23996219	-228.078213952338	339.371438607721	0
0.2399964	-228.551864317227	340.211177907603	0
0.24005197	-229.022286262298	341.044177951284	0
0.24021604	-229.489020741225	341.869864316202	0
0.24039767	-229.95165178645	342.687742966697	0
0.24055977	-230.409755025772	343.497288803877	0
0.24076451	-230.862870519877	344.297907369104	0
0.24092214	-231.310548298454	345.089010522358	0
0.24123087	-231.75246992539	345.870208455941	0
0.24126174	-232.188476826218	346.641321270226	0
0.24129261	-232.618488625166	347.402223192543	0
0.24144698	-233.04238795975	348.152683003668	0
0.24151246	-233.460048211201	348.89241490129	0
0.24166823	-233.871459361828	349.62126308032	0
0.24190493	-234.276859553247	350.339443965611	0
0.2419286	-234.676654967381	351.047433213796	0
0.2419979	-235.071238011499	351.745687874681	0
0.24212996	-235.460851495302	352.434456622673	0
0.24218804	-235.845677854186	353.113910250261	0
0.24239725	-236.226000542719	353.784383867949	0
0.24259597	-236.602232214056	354.446502278788	0
0.24261584	-236.974779413012	355.100967363292	0
0.24269239	-237.343871141129	355.748256429667	0
0.24282195	-237.709540168423	356.388571193528	0
0.24288674	-238.071742360267	357.022021368953	0
0.24305354	-238.430504719838	357.648865003348	0
0.2432627	-238.785954367109	358.269625569545	0
0.24328361	-239.138204518143	358.884897357949	0
0.24335752	-239.487230406878	359.495116370238	0
0.24348644	-239.832865818415	360.100535902922	0
0.2435488	-240.174934639495	360.701415606911	0
0.24372792	-240.51341431771	361.298229333477	0
0.24392855	-240.848496744575	361.891736448377	0
0.24394861	-241.180562312452	362.482829935726	0
0.24402531	-241.510154721789	363.072384929135	0
0.24415599	-241.838004384423	363.661225551974	0
0.24422133	-242.165050370541	364.250187374982	0
0.24438736	-242.492355306125	364.840130514002	0
0.24460077	-242.820895276309	365.43188378714	0
0.24462211	-243.151306014124	366.026057239036	0
0.24469456	-243.483769927045	366.622932490568	0
0.24482325	-243.818049484418	367.22242827332	0
0.24488403	-244.153659430288	367.824192513421	0
0.24507773	-244.490061774708	368.427729823058	0
0.24527701	-244.826834511684	369.032570654672	0
0.24529694	-245.163716456486	369.638351121822	0
0.2453732	-245.500643712071	370.244912705138	0
0.24550321	-245.837633869158	370.852220611625	0
0.24556821	-246.174722322407	371.460309394158	0
0.24573756	-246.511952030173	372.069266002135	0
0.24595075	-246.849373036046	372.679204069202	0
0.24597207	-247.187027870593	373.290203746391	0
0.24604479	-247.5249511248	373.902271184917	0
0.24617332	-247.86314815822	374.515343338632	0
0.2462354	-248.201641875615	375.129388918721	0
0.24642399	-248.540470486935	375.744403028061	0
0.24662462	-248.87968335693	376.360419310367	0
0.24664469	-249.219331254894	376.977499551731	0
0.24672143	-249.559466899787	377.595724783095	0
0.2468534	-249.900096324441	378.215090797405	0
0.24691939	-250.241164643675	378.835473211665	0
0.24708677	-250.582602940772	379.456722040371	0
0.24730664	-250.924397661614	380.078778973847	0
0.24732862	-251.266555706094	380.701628358131	0
0.24739917	-251.609107925565	381.325313041852	0
0.2475275	-251.952075186023	381.949860736658	0
0.24758685	-252.295434037131	382.575227279658	0
0.24780986	-252.639104865139	383.201274926614	0
0.2480191	-252.98301040669	383.827858498465	0
0.24804003	-253.32709820341	384.454881596288	0
0.24811462	-253.671349884945	385.082315336385	0
0.24824545	-254.01576162886	385.71015123314	0
0.24831086	-254.360312957401	386.338356090969	0
0.24848484	-254.704963046937	386.966865942124	0
0.2487013	-255.049675388589	387.595619721611	0
0.24872295	-255.394437376757	388.224599153312	0
0.24879497	-255.739258693887	388.853826055594	0
0.24892353	-256.084145039097	389.48331149666	0
0.24898616	-256.429085126408	390.113035667045	0
0.24918108	-256.774053417647	390.742954029024	0
0.24938413	-257.119021370646	391.373020440814	0
0.24940443	-257.46398801887	392.003237399464	0
0.24948081	-257.808976253166	392.633647507278	0
0.24961431	-258.153995745447	393.264268125445	0
0.24968106	-258.499050624359	393.895103616549	0
0.24985097	-258.844115689463	394.526102704621	0
0.25007817	-259.189162164729	395.157210401349	0
0.25010089	-259.534166989786	395.788374169229	0
0.25016947	-259.879141004394	396.419604188166	0
0.25029754	-260.224101156441	397.05092598077	0
0.25036979	-260.569055849854	397.682353083116	0
0.25054191	-260.913975400285	398.313828773465	0
0.25076874	-261.258824592619	398.945290225643	0
0.25079142	-261.603597385421	399.576719892523	0
0.25086369	-261.948338358635	400.208197349304	0
0.25099621	-262.293102705734	400.839824258695	0
0.25106201	-262.637947199828	401.471709987238	0
0.25124244	-262.982899343038	402.103912811424	0
0.25146213	-263.327974417576	402.736473716562	0
0.2514841	-263.673177938176	403.369414757332	0
0.25155548	-264.018522570471	404.002767738656	0
0.25168442	-264.364058124407	404.636628714914	0
0.2517476	-264.709857232518	405.271132731084	0
0.25195137	-265.055985056431	405.906399782297	0
0.25215802	-265.402501814716	406.542548624875	0
0.25217869	-265.749442261191	407.179650152073	0
0.25225424	-266.096855467478	407.817792815383	0
0.2523887	-266.444785332309	408.457045841481	0
0.25245593	-266.793219602068	409.097377699008	0
0.25263162	-267.142110346056	409.738695047505	0
0.25286448	-267.49146764978	410.38102071931	0
0.25288776	-267.841353299375	411.024476784682	0
0.25295503	-268.191866623808	411.669253463719	0
0.25308252	-268.543101345913	412.315531897934	0
0.25317469	-268.89510037685	412.963405484206	0
0.25330167	-269.247823660241	413.612811530391	0
0.25352315	-269.601200391911	414.263625675613	0
0.25376053	-269.955184134205	414.915767267868	0
0.25378426	-270.30983179476	415.569343921227	0
0.25385176	-270.665248972849	416.224552980088	0
0.25397928	-271.021539055923	416.881591559581	0
